<svg xmlns="http://www.w3.org/2000/svg" xmlns:xlink="http://www.w3.org/1999/xlink" width="500" zoomAndPan="magnify" viewBox="0 0 375 374.999991" height="500" preserveAspectRatio="xMidYMid meet" version="1.0"><defs><clipPath id="31b0b1f54e"><path d="M 25.019531 66 L 349.734375 66 L 349.734375 188 L 25.019531 188 Z M 25.019531 66 " clip-rule="nonzero"/></clipPath><clipPath id="07939112ee"><path d="M 25.019531 0 L 349.734375 0 L 349.734375 120.878906 L 25.019531 120.878906 Z M 25.019531 0 " clip-rule="nonzero"/></clipPath><clipPath id="ea057c28cd"><path d="M 302 93 L 349.734375 93 L 349.734375 282 L 302 282 Z M 302 93 " clip-rule="nonzero"/></clipPath><clipPath id="7749edb3d1"><path d="M 302 93 L 349.734375 93 L 349.734375 134 L 302 134 Z M 302 93 " clip-rule="nonzero"/></clipPath><clipPath id="c5fd1dfe82"><path d="M 25.019531 254 L 349.734375 254 L 349.734375 375 L 25.019531 375 Z M 25.019531 254 " clip-rule="nonzero"/></clipPath><clipPath id="826a252018"><path d="M 302 188.34375 L 349.734375 188.34375 L 349.734375 229 L 302 229 Z M 302 188.34375 " clip-rule="nonzero"/></clipPath><clipPath id="943a75a528"><path d="M 25.019531 162 L 349.734375 162 L 349.734375 283 L 25.019531 283 Z M 25.019531 162 " clip-rule="nonzero"/></clipPath></defs><g clip-path="url(#31b0b1f54e)"><path fill="#cfcfcf" d="M 25.039062 93.722656 L 71.957031 66.621094 L 118.839844 93.675781 L 187.386719 133.328125 L 302.398438 66.894531 L 349.6875 93.722656 L 187.363281 187.488281 L 71.921875 120.777344 L 25.039062 93.722656 " fill-opacity="1" fill-rule="nonzero"/></g><g clip-path="url(#07939112ee)"><path fill="#cfcfcf" d="M 255.945312 93.753906 L 302.839844 120.8125 L 349.667969 93.753906 L 349.238281 93.566406 L 302.378906 66.390625 L 187.34375 -0.0117188 L 25.019531 93.765625 L 71.902344 120.8125 L 187.320312 54.148438 L 255.945312 93.753906 " fill-opacity="1" fill-rule="nonzero"/></g><g clip-path="url(#ea057c28cd)"><path fill="#cfcfcf" d="M 349.742188 280.789062 L 349.6875 93.722656 L 302.859375 120.765625 L 302.804688 253.65625 L 302.792969 254.207031 L 349.6875 281.253906 L 349.742188 280.789062 " fill-opacity="1" fill-rule="nonzero"/></g><g clip-path="url(#7749edb3d1)"><path fill="#000000" d="M 302.851562 133.417969 L 302.859375 121.0625 L 302.859375 120.765625 L 349.6875 93.722656 L 302.851562 133.417969 " fill-opacity="1" fill-rule="nonzero"/></g><g clip-path="url(#c5fd1dfe82)"><path fill="#cfcfcf" d="M 118.75 281.261719 L 71.867188 254.207031 L 25.039062 281.261719 L 25.46875 281.4375 L 72.320312 308.628906 L 187.363281 375.027344 L 349.6875 281.253906 L 302.792969 254.207031 L 187.386719 320.871094 L 118.75 281.261719 " fill-opacity="1" fill-rule="nonzero"/></g><path fill="#cfcfcf" d="M 25.039062 93.722656 L 25.445312 93.492188 L 72.328125 120.535156 L 71.921875 120.777344 L 71.867188 254.207031 L 25.039062 281.261719 L 25.039062 93.722656 " fill-opacity="1" fill-rule="nonzero"/><path fill="#000000" d="M 71.859375 133.253906 L 25.039062 93.722656 L 71.921875 120.777344 L 71.859375 133.253906 " fill-opacity="1" fill-rule="nonzero"/><g clip-path="url(#826a252018)"><path fill="#000000" d="M 302.851562 228.257812 L 302.859375 215.90625 L 302.859375 215.609375 L 349.6875 188.550781 L 302.851562 228.257812 " fill-opacity="1" fill-rule="nonzero"/></g><path fill="#393536" d="M 71.878906 224.0625 L 71.890625 215.585938 L 71.921875 215.621094 L 71.878906 224.0625 " fill-opacity="1" fill-rule="nonzero"/><path fill="#000000" d="M 71.859375 228.09375 L 25.039062 188.5625 L 71.890625 215.585938 L 71.878906 224.0625 L 71.859375 228.09375 " fill-opacity="1" fill-rule="nonzero"/><g clip-path="url(#943a75a528)"><path fill="#cfcfcf" d="M 25.039062 189.199219 L 71.957031 162.097656 L 118.839844 189.15625 L 187.386719 228.808594 L 302.398438 162.375 L 349.6875 189.1875 L 187.363281 282.964844 L 71.921875 216.257812 L 25.039062 189.199219 " fill-opacity="1" fill-rule="nonzero"/></g></svg>